<svg width="158" height="29" viewBox="0 0 158 29" fill="none" xmlns="http://www.w3.org/2000/svg"><g clip-path="url(#clip0_72_2129)"><path d="M36.7014 21.9568C37.389 21.1845 37.8815 20.3041 37.9896 18.7596L38.5481 10.208C38.6352 8.99706 38.3559 7.32038 37.389 6.72543L37.41 6.68036H42.3288C42.0705 7.01089 42.1126 7.69298 42.6711 8.68757L44.7971 12.4346C45.4638 13.6245 45.9352 14.8143 46.1274 16.0704H46.2145C46.5358 14.7272 47.0943 13.7116 47.803 12.4346L49.9081 8.62146C50.4456 7.65091 50.4876 7.01389 50.2294 6.68036H55.1901L55.2112 6.72543C54.2442 7.27531 53.8809 8.99706 53.965 10.208L54.6316 18.7596C54.7187 19.8173 55.1271 21.1605 55.8988 21.9568L55.8778 22.0018H50.9591L50.938 21.9568C51.3464 21.5812 51.7548 20.6136 51.6467 19.2224L51.3044 14.6611C51.2173 13.6244 51.2413 12.4796 51.4335 10.869H51.3464C50.896 12.3474 50.4005 13.3811 49.6918 14.616L47.3076 18.7596C46.5328 20.0818 46.3406 20.9622 46.2986 21.4249H46.1274C46.0644 20.9622 45.8481 20.0818 45.0524 18.7807L42.4969 14.592C41.8093 13.4472 41.3588 12.4105 40.9504 10.866H40.8634C41.0345 12.5187 41.0345 13.7086 40.9925 14.6581L40.7552 19.2194C40.6922 20.6076 41.0555 21.5781 41.4639 21.9537L41.4429 21.9988H36.7164L36.6953 21.9537L36.7014 21.9568Z" fill="#FDFAEB"></path><path d="M70.5709 6.68335V6.72842C70.0334 7.14609 69.4118 8.05053 68.8532 8.97601L64.7933 15.851V18.5192C64.7933 20.4153 65.3939 21.5811 66.1026 21.9567V22.0018H60.5412V21.9567C61.1628 21.5811 61.8505 20.3912 61.8505 18.5192V15.9622L57.7275 8.97601C57.19 8.07156 56.5234 7.14609 55.9889 6.72842V6.68335H60.5653V6.72842C60.3731 7.32337 60.6523 8.24885 61.0607 8.97601L62.7153 11.9087C62.9526 12.3053 63.1658 12.723 63.382 13.342H63.4691C63.6853 12.702 63.9405 12.3053 64.1567 11.9087L65.7873 8.97601C66.1957 8.24885 66.4749 7.32337 66.2587 6.72842V6.68335H70.5769H70.5709Z" fill="#FDFAEB"></path><path d="M71.4297 21.9567C71.9672 21.5811 72.5888 20.5023 72.5888 18.6965V9.99156C72.5888 8.35995 71.9882 7.10394 71.4297 6.73135V6.68628H77.6576C82.168 6.68628 85.1318 9.52882 85.1318 14.3335C85.1318 19.1382 82.6184 22.0047 77.3153 22.0047H71.4297V21.9597V21.9567ZM77.5285 19.8172C80.4053 19.8172 81.9518 17.8792 81.9518 14.3305C81.9518 10.6045 80.4924 8.86476 77.4204 8.86476H75.5316V19.8172H77.5285Z" fill="#FDFAEB"></path><path d="M87.0207 14.4838C87.0207 9.52588 90.0266 6.24164 94.9904 6.24164C99.5878 6.24164 102.657 9.43874 102.657 14.1773C102.657 18.9159 99.4557 22.4405 94.666 22.4405C89.8764 22.4405 87.0207 19.003 87.0207 14.4838ZM99.4557 14.3967C99.4557 10.6707 97.693 8.5343 94.7741 8.5343C91.8553 8.5343 90.2218 10.827 90.2218 14.2644C90.2218 17.8792 91.8103 20.1478 94.8823 20.1478C97.5248 20.1478 99.4587 17.9213 99.4587 14.3937" fill="#FDFAEB"></path><path d="M112.491 22.0018H104.867V21.9568C105.404 21.5812 106.026 20.5024 106.026 18.6935V9.8985C106.026 8.15872 105.425 7.10103 104.867 6.72543V6.68036H110.128V6.72543C109.59 7.10103 108.969 8.17975 108.969 9.98564V19.7933H111.095C112.963 19.7933 114.467 19.1322 115.389 17.8101L115.431 17.8312L114.873 22.1731C114.056 22.0199 113.476 21.9958 112.488 21.9958" fill="#FDFAEB"></path><path d="M124.389 22.0018H116.764V21.9568C117.302 21.5812 117.923 20.5024 117.923 18.6935V9.8985C117.923 8.15872 117.323 7.10103 116.764 6.72543V6.68036H122.025V6.72543C121.488 7.10103 120.866 8.17975 120.866 9.98564V19.7933H122.992C124.86 19.7933 126.365 19.1322 127.286 17.8101L127.328 17.8312L126.77 22.1731C125.953 22.0199 125.374 21.9958 124.386 21.9958" fill="#FDFAEB"></path><path d="M142.751 21.9567V22.0018H137.896V21.9567C138.262 21.6713 138.433 20.7668 137.896 19.2464L137.704 18.7176H132.163L131.971 19.2464C131.413 20.7668 131.629 21.6713 131.929 21.9567V22.0018H127.419V21.9567C127.998 21.4279 128.923 20.0817 129.503 18.387L132.575 9.30654C133.004 8.00546 132.596 7.07998 132.187 6.72842V6.68335H137.878V6.72842C137.469 7.10402 137.04 8.00546 137.49 9.30654L140.646 18.387C141.226 20.0847 142.151 21.4519 142.751 21.9567ZM133.668 14.2194L132.872 16.5571H136.995L136.199 14.2194C135.704 12.7861 135.169 11.3107 134.953 9.61303H134.866C134.674 11.3107 134.157 12.7861 133.665 14.2194" fill="#FDFAEB"></path><path d="M157.033 21.6052V21.6503L152.631 22.4646C152.352 21.6052 152.009 20.833 151.535 20.0187L148.205 14.1773H149.235C151.081 14.1773 152.111 13.4051 152.111 11.446C152.111 9.8384 151.081 8.82278 149.235 8.84381L147.73 8.86485V18.7837C147.73 20.5235 148.331 21.5842 148.805 21.9568V22.0018H143.628V21.9568C144.187 21.5812 144.787 20.5024 144.787 18.6935V9.8985C144.787 8.15872 144.187 7.09803 143.628 6.72543V6.68036H149.727C153.162 6.68036 155.159 8.46521 155.159 11.3318C155.159 13.6695 154.042 15.0998 152.237 15.6948L154.234 19.0241C155.051 20.3702 155.994 21.2506 157.027 21.6022" fill="#FDFAEB"></path><path d="M12.9485 11.8937C12.9485 15.4874 10.9516 17.1821 7.53731 17.1821H5.77762V19.0121C5.77762 20.7549 6.3782 21.8095 6.93673 22.1851V22.2302H1.67267V22.1851C2.21019 21.8095 2.83178 20.7308 2.83178 18.9249V10.1299C2.83178 8.39011 2.23121 7.32941 1.67267 6.95681V6.91174H7.53731C10.9516 6.91174 12.9485 8.71763 12.9485 11.8937ZM9.89758 12.05C9.89758 10.0217 8.99672 9.09623 7.04183 9.09623H5.77461V14.9796L7.04183 15.0007C9.01774 15.0217 9.89758 13.943 9.89758 12.0469" fill="#FDFAEB"></path><path d="M14.0415 22.1881C14.579 21.8125 15.2006 20.7338 15.2006 18.9279V10.223C15.2006 8.3931 14.6 7.33541 14.0415 6.95981V6.91473H19.3236V6.95981C18.7861 7.33541 18.1645 8.41413 18.1645 10.223V18.9279C18.1645 20.7578 18.765 21.8155 19.3236 22.1881V22.2332H14.0415V22.1881Z" fill="#FDFAEB"></path><path d="M36.1007 21.6142V21.6592L31.6114 22.4735C31.6114 21.8576 31.1399 20.9321 30.2571 19.5439L28.068 16.0613L25.7047 20.0066C25.0831 21.0433 25.2332 21.7043 25.5756 21.9477V21.9928H20.5067V21.9477C21.2574 21.5961 22.2904 20.4934 23.1702 19.1052L26.5004 13.8378L23.1072 8.63645C22.5276 7.75304 22.0322 7.2272 21.1733 6.71939V6.67432H26.1791V6.71939C26.05 7.38044 26.2632 7.95436 26.7587 8.81373L28.3923 11.6112L29.9177 8.9219C30.4553 7.97539 30.7345 7.38044 30.3892 6.71939V6.67432H35.1157V6.71939C34.4491 6.98381 33.5692 7.84318 32.6444 9.38765L30.0018 13.8408L33.1579 18.5132C34.1878 20.0547 35.35 21.1154 36.1007 21.6202" fill="#FDFAEB"></path><path d="M158 25.8209H0V29H158V25.8209Z" fill="#FDFAEB"></path><path d="M158 0.238037H0V3.41711H158V0.238037Z" fill="#FDFAEB"></path></g><defs><clipPath id="clip0_72_2129"><rect width="158" height="29" fill="white"></rect></clipPath></defs></svg>